<svg width="24" height="24" viewBox="0 0 24 24" fill="none" xmlns="http://www.w3.org/2000/svg">
<g clip-path="url(#clip0_13_2368)">
<path fill-rule="evenodd" clip-rule="evenodd" d="M12 3.2C7.1399 3.2 3.2 7.1399 3.2 12C3.2 16.8601 7.1399 20.8 12 20.8C16.8601 20.8 20.8 16.8601 20.8 12C20.8 7.1399 16.8601 3.2 12 3.2ZM0.800003 12C0.800003 5.81441 5.81441 0.800003 12 0.800003C18.1856 0.800003 23.2 5.81441 23.2 12C23.2 18.1856 18.1856 23.2 12 23.2C5.81441 23.2 0.800003 18.1856 0.800003 12Z" fill="#1C274C"/>
<path fill-rule="evenodd" clip-rule="evenodd" d="M12 7.8C12.6627 7.8 13.2 8.33726 13.2 9V10.8H15C15.6627 10.8 16.2 11.3373 16.2 12C16.2 12.6627 15.6627 13.2 15 13.2H13.2V15C13.2 15.6627 12.6627 16.2 12 16.2C11.3373 16.2 10.8 15.6627 10.8 15V13.2H9C8.33726 13.2 7.8 12.6627 7.8 12C7.8 11.3373 8.33726 10.8 9 10.8H10.8V9C10.8 8.33726 11.3373 7.8 12 7.8Z" fill="#1C274C"/>
</g>
<defs>
<clipPath id="clip0_13_2368">
<rect width="24" height="24" fill="white"/>
</clipPath>
</defs>
</svg>
