<svg width="24" height="24" viewBox="0 0 24 24" fill="none" xmlns="http://www.w3.org/2000/svg">
<path fill-rule="evenodd" clip-rule="evenodd" d="M4.05088 9.00497C4.05088 4.51596 7.56813 0.800003 12 0.800003C16.4318 0.800003 19.9491 4.51597 19.9491 9.00497V9.70957C19.9491 10.3279 20.1257 10.929 20.4519 11.4369M20.4519 11.4369L21.5592 13.1609C21.5592 13.1609 21.5593 13.161 21.5592 13.1609C22.9832 15.3778 21.9316 18.4486 19.3564 19.1775C14.5404 20.5408 9.4596 20.5408 4.64353 19.1775C2.06848 18.4486 1.01678 15.3778 2.44071 13.161L3.54813 11.4369C3.54813 11.4369 3.54814 11.4369 3.54813 11.4369C3.87432 10.929 4.05088 10.328 4.05088 9.70957V9.00497M12 3.2C8.977 3.2 6.45088 5.7565 6.45088 9.00497V9.70957C6.45088 10.7824 6.14512 11.8346 5.56748 12.7339L4.46002 14.458C3.86087 15.3908 4.35363 16.6012 5.2972 16.8683C9.68589 18.1106 14.3142 18.1106 18.7028 16.8683C19.6464 16.6012 20.1391 15.3908 19.54 14.4581L18.4325 12.7339C17.8549 11.8346 17.5491 10.7825 17.5491 9.70957V9.00497C17.5491 5.7565 15.023 3.2 12 3.2Z" fill="#1C274C"/>
<path fill-rule="evenodd" clip-rule="evenodd" d="M16.9211 17.8763C17.5417 18.1089 17.8563 18.8005 17.6237 19.4211C16.7863 21.6555 14.5582 23.2 12 23.2C9.44175 23.2 7.21371 21.6555 6.37633 19.4211C6.14375 18.8005 6.45829 18.1089 7.07888 17.8763C7.69947 17.6437 8.3911 17.9583 8.62368 18.5789C9.09636 19.8401 10.4032 20.8 12 20.8C13.5968 20.8 14.9037 19.8401 15.3763 18.5789C15.6089 17.9583 16.3005 17.6437 16.9211 17.8763Z" fill="#1C274C"/>
</svg>
