<svg width="24" height="24" viewBox="0 0 24 24" fill="none" xmlns="http://www.w3.org/2000/svg">
<path d="M15.9451 21.3983C13.9551 21.3983 10.4551 20.8083 7.02509 17.3783C3.36509 13.7183 2.94509 9.98834 3.00509 8.08834C3.06509 6.77834 3.71509 5.46834 4.89509 4.28834C5.85509 3.31834 7.20509 2.85834 8.50509 3.03834C9.69509 3.20834 10.7151 3.89834 11.2951 4.92834L11.9451 6.08834C12.7751 7.57834 12.4851 9.50834 11.2351 10.8083C11.1751 10.9483 11.2351 11.4583 12.0851 12.3183C12.9351 13.1783 13.4551 13.2283 13.5951 13.1683C14.8951 11.9183 16.8251 11.6283 18.3151 12.4583L19.4751 13.1083C20.5151 13.6883 21.2051 14.7083 21.3651 15.8983C21.5451 17.1883 21.0751 18.5383 20.1151 19.4983C18.9351 20.6783 17.6151 21.3283 16.3151 21.3783C16.1951 21.3783 16.0751 21.3783 15.9451 21.3783V21.3983ZM7.94509 5.39834C7.46509 5.39834 6.96509 5.60834 6.59509 5.98834C6.07509 6.50834 5.44509 7.30834 5.41509 8.17834C5.34509 10.0183 5.86509 12.8183 8.72509 15.6783C11.5851 18.5383 14.3951 19.0683 16.2351 18.9883C17.1051 18.9583 17.9051 18.3283 18.4251 17.8083C18.8551 17.3783 19.0751 16.7883 18.9951 16.2283C18.9551 15.9683 18.8251 15.4883 18.3051 15.1983L17.1451 14.5483C16.5651 14.2183 15.7751 14.3783 15.2251 14.9183C14.5451 15.5983 12.6551 16.2783 10.3851 14.0083C8.10509 11.7283 8.79509 9.84834 9.47509 9.16834C10.0151 8.62834 10.1751 7.83834 9.84509 7.24834L9.19509 6.08834C8.90509 5.57834 8.43509 5.43834 8.17509 5.39834C8.10509 5.38834 8.02509 5.37834 7.94509 5.37834V5.39834Z" fill="#1C274C"/>
</svg>
