<svg width="24" height="24" viewBox="0 0 24 24" fill="none" xmlns="http://www.w3.org/2000/svg">
<path d="M8.19996 13.3998H8.20896C8.87166 13.3998 9.40896 12.8625 9.40896 12.1999C9.40896 11.5372 8.87166 10.9999 8.20896 10.9999H8.19996C7.53726 10.9999 6.99997 11.5372 6.99997 12.1999C6.99997 12.8625 7.53726 13.3998 8.19996 13.3998ZM12.1998 13.3998H12.2088C12.8715 13.3998 13.4088 12.8625 13.4088 12.1999C13.4088 11.5372 12.8715 10.9999 12.2088 10.9999H12.1998C11.5371 10.9999 10.9998 11.5372 10.9998 12.1999C10.9998 12.8625 11.5371 13.3998 12.1998 13.3998ZM16.1907 13.3998H16.1997C16.8624 13.3998 17.3997 12.8625 17.3997 12.1999C17.3997 11.5372 16.8624 10.9999 16.1997 10.9999H16.1907C15.528 10.9999 14.9907 11.5372 14.9907 12.1999C14.9907 12.8625 15.528 13.3998 16.1907 13.3998Z" fill="#1C274C"/>
<path d="M12.2001 23.4C13.9518 23.4 15.6297 23.0067 17.1876 22.2306C17.295 22.1772 17.4057 22.1592 17.4906 22.182L19.7166 22.7775C20.5893 23.0109 21.4917 22.7691 22.1307 22.1301C22.7694 21.4914 23.0115 20.589 22.7778 19.7163L22.1823 17.4903C22.1595 17.4054 22.1772 17.295 22.2309 17.1873C23.0067 15.6294 23.4 13.9515 23.4 12.1999C23.4 10.6885 23.1036 9.22146 22.5195 7.83997C21.9552 6.50618 21.1479 5.30858 20.1198 4.28019C19.0917 3.25179 17.8938 2.44479 16.56 1.8805C15.1782 1.2964 13.7115 1 12.2001 1C10.6888 1 9.22176 1.2964 7.84026 1.8805C6.50647 2.44479 5.30887 3.25209 4.28048 4.28019C3.25208 5.30828 2.44479 6.50588 1.88079 7.83997C1.29639 9.22146 0.999994 10.6885 0.999994 12.1999C0.999994 13.7112 1.29639 15.1782 1.88079 16.5597C2.44479 17.8935 3.25238 19.0911 4.28048 20.1195C5.30857 21.1479 6.50647 21.9552 7.84026 22.5192C9.22176 23.1036 10.6888 23.4 12.2001 23.4ZM17.4126 19.7727C16.9734 19.7727 16.53 19.8771 16.1178 20.0823C14.8953 20.6913 13.5771 21 12.2001 21C7.34797 21 3.40028 17.0523 3.40028 12.2002C3.40028 7.34797 7.34767 3.39999 12.2001 3.39999C17.0526 3.39999 21 7.34767 21 12.1999C21 13.5768 20.6913 14.8947 20.0823 16.1172C19.7667 16.7505 19.689 17.4585 19.8636 18.1104L20.4591 20.3364C20.4642 20.3559 20.4741 20.3922 20.4333 20.433C20.3925 20.4738 20.3562 20.4642 20.3367 20.4588L18.1107 19.8633C17.883 19.8024 17.6487 19.7727 17.4126 19.7727Z" fill="#1C274C"/>
</svg>
