<svg width="24" height="24" viewBox="0 0 24 24" fill="none" xmlns="http://www.w3.org/2000/svg">
<g clip-path="url(#clip0_10_1832)">
<path fill-rule="evenodd" clip-rule="evenodd" d="M12 3.2C7.13988 3.2 3.19999 7.13989 3.19999 12C3.19999 16.8601 7.13988 20.8 12 20.8C16.8601 20.8 20.8 16.8601 20.8 12C20.8 7.13989 16.8601 3.2 12 3.2ZM0.799988 12C0.799988 5.81441 5.8144 0.799999 12 0.799999C18.1856 0.799999 23.2 5.81441 23.2 12C23.2 18.1856 18.1856 23.2 12 23.2C5.8144 23.2 0.799988 18.1856 0.799988 12Z" fill="#1C274C"/>
<path fill-rule="evenodd" clip-rule="evenodd" d="M8.03593 15.2854C8.43057 14.753 9.18211 14.6413 9.71455 15.0359C10.3697 15.5215 11.1559 15.8 12 15.8C12.8441 15.8 13.6303 15.5215 14.2854 15.0359C14.8179 14.6413 15.5694 14.753 15.9641 15.2855C16.3587 15.8179 16.247 16.5694 15.7145 16.9641C14.6689 17.7391 13.3867 18.2 12 18.2C10.6133 18.2 9.33104 17.7391 8.28543 16.9641C7.753 16.5694 7.64129 15.8179 8.03593 15.2854Z" fill="#1C274C"/>
<path d="M16 10.5C16 11.3284 15.5523 12 15 12C14.4477 12 14 11.3284 14 10.5C14 9.67157 14.4477 9 15 9C15.5523 9 16 9.67157 16 10.5Z" fill="#1C274C"/>
<path d="M8.99999 12C9.55227 12 9.99999 11.3284 9.99999 10.5C9.99999 9.67157 9.55227 9 8.99999 9C8.4477 9 7.99999 9.67157 7.99999 10.5C7.99999 11.3284 8.4477 12 8.99999 12Z" fill="#1C274C"/>
</g>
<defs>
<clipPath id="clip0_10_1832">
<rect width="24" height="24" fill="white"/>
</clipPath>
</defs>
</svg>
