<svg width="24" height="24" viewBox="0 0 24 24" fill="none" xmlns="http://www.w3.org/2000/svg">
<g clip-path="url(#clip0_6_1581)">
<path fill-rule="evenodd" clip-rule="evenodd" d="M12 3.2C7.13988 3.2 3.19999 7.13989 3.19999 12C3.19999 16.8601 7.13988 20.8 12 20.8C16.8601 20.8 20.8 16.8601 20.8 12C20.8 7.13989 16.8601 3.2 12 3.2ZM0.799988 12C0.799988 5.81441 5.8144 0.799999 12 0.799999C18.1856 0.799999 23.2 5.81441 23.2 12C23.2 18.1856 18.1856 23.2 12 23.2C5.8144 23.2 0.799988 18.1856 0.799988 12Z" fill="#1C274C"/>
<path fill-rule="evenodd" clip-rule="evenodd" d="M12 9.2C10.4536 9.2 9.19999 10.4536 9.19999 12C9.19999 13.5464 10.4536 14.8 12 14.8C13.5464 14.8 14.8 13.5464 14.8 12C14.8 10.4536 13.5464 9.2 12 9.2ZM6.79999 12C6.79999 9.12812 9.12811 6.8 12 6.8C14.8719 6.8 17.2 9.12812 17.2 12C17.2 14.8719 14.8719 17.2 12 17.2C9.12811 17.2 6.79999 14.8719 6.79999 12Z" fill="#1C274C"/>
<path fill-rule="evenodd" clip-rule="evenodd" d="M19.8485 5.84853L15.8485 9.84853L14.1515 8.15147L18.1515 4.15147L19.8485 5.84853Z" fill="#1C274C"/>
<path fill-rule="evenodd" clip-rule="evenodd" d="M9.84852 15.8485L5.84852 19.8485L4.15146 18.1515L8.15146 14.1515L9.84852 15.8485Z" fill="#1C274C"/>
<path fill-rule="evenodd" clip-rule="evenodd" d="M5.84852 4.15147L9.84852 8.15147L8.15146 9.84853L4.15146 5.84853L5.84852 4.15147Z" fill="#1C274C"/>
<path fill-rule="evenodd" clip-rule="evenodd" d="M15.8485 14.1515L19.8485 18.1515L18.1515 19.8485L14.1515 15.8485L15.8485 14.1515Z" fill="#1C274C"/>
</g>
<defs>
<clipPath id="clip0_6_1581">
<rect width="24" height="24" fill="white"/>
</clipPath>
</defs>
</svg>
