<svg width="24" height="24" viewBox="0 0 24 24" fill="none" xmlns="http://www.w3.org/2000/svg">
<g clip-path="url(#clip0_10_102)">
<path fill-rule="evenodd" clip-rule="evenodd" d="M10.8033 3.54589C10.232 3.82374 9.54042 4.25119 8.51681 4.88647L6.51681 6.12773C5.54861 6.72862 4.8961 7.13516 4.41451 7.50397C3.95467 7.85613 3.72415 8.12061 3.57181 8.39892C3.41838 8.67923 3.31576 9.02573 3.25963 9.62314C3.20121 10.2448 3.19999 11.0375 3.19999 12.2039V13.725C3.19999 15.7082 3.20237 17.0789 3.33643 18.1103C3.46652 19.1111 3.70134 19.6096 4.03429 19.954L4.03432 19.954C4.36181 20.2928 4.82758 20.528 5.7762 20.66C6.76362 20.7973 8.07931 20.8 9.99999 20.8H14C15.9206 20.8 17.2364 20.7973 18.2238 20.66C19.1724 20.528 19.6382 20.2928 19.9656 19.9541L19.9657 19.954C20.2986 19.6096 20.5335 19.1111 20.6635 18.1103C20.7976 17.0789 20.8 15.7082 20.8 13.725V12.2039C20.8 11.0375 20.7988 10.2448 20.7404 9.62314C20.6842 9.02573 20.5816 8.67923 20.4282 8.39892C20.2758 8.1206 20.0453 7.85612 19.5855 7.50396C19.1039 7.13515 18.4514 6.72861 17.4832 6.12772L15.4832 4.88648C14.4596 4.25119 13.768 3.82374 13.1966 3.54589C12.6498 3.27998 12.3073 3.2 12 3.2C11.6927 3.2 11.3501 3.27998 10.8033 3.54589ZM9.75376 1.38755C10.4866 1.03117 11.1994 0.800003 12 0.800003C12.8006 0.800003 13.5134 1.03117 14.2462 1.38755C14.942 1.72591 15.7384 2.22016 16.6969 2.8151L18.7973 4.11861C19.7045 4.68164 20.4584 5.1495 21.0447 5.59855C21.6632 6.07222 22.1666 6.57635 22.5334 7.24656C22.8992 7.91479 23.0562 8.61467 23.1298 9.39861C23.2 10.1457 23.2 11.0513 23.2 12.1482V13.8089C23.2 15.688 23.2001 17.2154 23.0435 18.4196C22.8807 19.6721 22.5298 20.7547 21.6912 21.6221C20.8471 22.4953 19.7843 22.866 18.5544 23.0371C17.3823 23.2001 15.8987 23.2 14.0883 23.2H9.91158C8.10119 23.2 6.61767 23.2001 5.4456 23.0371C4.21571 22.866 3.15289 22.4953 2.3088 21.6222C1.47021 20.7547 1.11925 19.6721 0.956446 18.4196C0.799927 17.2154 0.799954 15.688 0.799989 13.8089L0.799989 12.1483C0.799969 11.0513 0.799953 10.1457 0.870153 9.39861C0.943816 8.61467 1.1008 7.9148 1.46656 7.24657C1.83342 6.57635 2.33679 6.07221 2.95528 5.59854C3.54158 5.14954 4.29539 4.68173 5.20252 4.11877L7.25123 2.84728L7.30294 2.81518C8.26157 2.2202 9.05795 1.72592 9.75376 1.38755Z" fill="#1C274C"/>
<path fill-rule="evenodd" clip-rule="evenodd" d="M8.03593 15.2854C8.43057 14.753 9.18211 14.6413 9.71455 15.0359C10.3697 15.5215 11.1559 15.8 12 15.8C12.8441 15.8 13.6303 15.5215 14.2854 15.0359C14.8179 14.6413 15.5694 14.753 15.9641 15.2855C16.3587 15.8179 16.247 16.5694 15.7145 16.9641C14.6689 17.7391 13.3867 18.2 12 18.2C10.6133 18.2 9.33104 17.7391 8.28543 16.9641C7.753 16.5694 7.64129 15.8179 8.03593 15.2854Z" fill="#1C274C"/>
</g>
<defs>
<clipPath id="clip0_10_102">
<rect width="24" height="24" fill="white"/>
</clipPath>
</defs>
</svg>
