<svg width="24" height="24" viewBox="0 0 24 24" fill="none" xmlns="http://www.w3.org/2000/svg">
<path fill-rule="evenodd" clip-rule="evenodd" d="M15.1515 2.15147C15.6201 1.68284 16.3799 1.68284 16.8485 2.15147L19.8485 5.15147C20.3172 5.6201 20.3172 6.3799 19.8485 6.84853L16.8485 9.84853C16.3799 10.3172 15.6201 10.3172 15.1515 9.84853C14.6828 9.3799 14.6828 8.6201 15.1515 8.15147L16.1029 7.2H8.18493C5.76568 7.2 3.96238 9.43068 4.46928 11.7962L4.46928 11.7962L4.67336 12.7486C4.81222 13.3966 4.39945 14.0345 3.75142 14.1734C3.10339 14.3122 2.46549 13.8995 2.32663 13.2514L2.12255 12.299C2.12255 12.299 2.12255 12.299 2.12255 12.299C1.29551 8.4395 4.23775 4.8 8.18493 4.8H16.1029L15.1515 3.84853C14.6828 3.3799 14.6828 2.6201 15.1515 2.15147ZM20.2485 9.82664C20.8966 9.68777 21.5345 10.1005 21.6733 10.7485L21.8774 11.7009C22.7045 15.5605 19.7622 19.2 15.8151 19.2H7.89705L8.84852 20.1515C9.31715 20.6201 9.31715 21.3799 8.84852 21.8485C8.37989 22.3172 7.62009 22.3172 7.15146 21.8485L4.15146 18.8485C3.92642 18.6235 3.79999 18.3183 3.79999 18C3.79999 17.6817 3.92642 17.3765 4.15146 17.1515L7.15146 14.1515C7.62009 13.6828 8.37989 13.6828 8.84852 14.1515C9.31715 14.6201 9.31715 15.3799 8.84852 15.8485L7.89705 16.8H15.8151C18.2343 16.8 20.0376 14.5693 19.5307 12.2039L19.3266 11.2515C19.1878 10.6034 19.6005 9.96551 20.2485 9.82664Z" fill="#1C274C"/>
</svg>
