<svg width="24" height="24" viewBox="0 0 24 24" fill="none" xmlns="http://www.w3.org/2000/svg">
<path fill-rule="evenodd" clip-rule="evenodd" d="M5.7708 5.33575C4.81462 5.4643 4.34576 5.69443 4.02009 6.0201C4.02009 6.0201 4.02009 6.02009 4.02009 6.0201M4.02009 6.0201C3.69443 6.34576 3.46429 6.81463 3.33574 7.77081C3.20254 8.76152 3.19999 10.0805 3.19999 12C3.19999 13.9195 3.20254 15.2385 3.33574 16.2292C3.46429 17.1854 3.69443 17.6542 4.02006 17.9798C4.34573 18.3055 4.81462 18.5357 5.7708 18.6643C6.76151 18.7975 8.08045 18.8 9.99999 18.8H14C15.9195 18.8 17.2385 18.7975 18.2292 18.6643C19.1854 18.5357 19.6542 18.3056 19.9798 17.9799C20.3055 17.6543 20.5357 17.1854 20.6642 16.2292C20.7974 15.2385 20.8 13.9195 20.8 12C20.8 10.0805 20.7974 8.76152 20.6642 7.77081C20.5357 6.81463 20.3055 6.34578 19.9799 6.02011C19.6543 5.69447 19.1854 5.4643 18.2292 5.33575C17.2385 5.20255 15.9195 5.2 14 5.2H9.99999C8.08045 5.2 6.76151 5.20255 5.7708 5.33575M9.91408 2.8H14.0859C15.8984 2.79996 17.3796 2.79993 18.549 2.95715C19.7713 3.12148 20.831 3.47712 21.6769 4.32304M21.6769 4.32304C22.5228 5.16894 22.8785 6.2287 23.0428 7.45101C23.2001 8.62039 23.2 10.1016 23.2 11.9141V12.0859C23.2 13.8984 23.2001 15.3796 23.0428 16.549C22.8785 17.7713 22.5229 18.831 21.677 19.6769C20.8311 20.5229 19.7713 20.8785 18.549 21.0428C17.3796 21.2001 15.8984 21.2 14.0859 21.2H9.91407C8.10155 21.2 6.62038 21.2001 5.451 21.0428C4.22867 20.8785 3.16893 20.5228 2.32302 19.6769C1.47711 18.831 1.12147 17.7713 0.957137 16.549C0.799918 15.3796 0.79995 13.8984 0.799989 12.0859V11.9141C0.79995 10.1016 0.799918 8.6204 0.957137 7.45102C1.12147 6.2287 1.47712 5.16896 2.32303 4.32305C3.16894 3.47714 4.22868 3.12148 5.45101 2.95715C6.62039 2.79993 8.10155 2.79996 9.91408 2.8" fill="#1C274C"/>
<path fill-rule="evenodd" clip-rule="evenodd" d="M5.07812 7.23178C5.5024 6.72265 6.25908 6.65386 6.76821 7.07814L8.92711 8.87722C9.86885 9.66199 10.492 10.1785 11.01 10.5117C11.5001 10.8268 11.7738 10.8949 12 10.8949C12.2262 10.8949 12.4999 10.8268 12.99 10.5117C13.508 10.1785 14.1311 9.662 15.0729 8.87722L17.2318 7.07814C17.7409 6.65386 18.4976 6.72265 18.9219 7.23178C19.3461 7.74091 19.2773 8.49759 18.7682 8.92187L16.5533 10.7676C15.6829 11.493 14.946 12.1071 14.2882 12.5302C13.5884 12.9803 12.8599 13.2949 12 13.2949C11.1401 13.2949 10.4116 12.9803 9.71176 12.5302C9.05401 12.1072 8.31718 11.4931 7.44682 10.7677C7.42817 10.7522 7.40945 10.7366 7.39067 10.7209L5.23177 8.92187C4.72264 8.49759 4.65385 7.74091 5.07812 7.23178Z" fill="#1C274C"/>
</svg>
