<svg width="24" height="24" viewBox="0 0 24 24" fill="none" xmlns="http://www.w3.org/2000/svg">
<path fill-rule="evenodd" clip-rule="evenodd" d="M12 3.2C9.34903 3.2 7.2 5.34903 7.2 8V13C7.2 15.651 9.34904 17.8 12 17.8C14.651 17.8 16.8 15.651 16.8 13V8C16.8 5.34904 14.651 3.2 12 3.2ZM4.8 8C4.8 4.02355 8.02355 0.800003 12 0.800003C15.9764 0.800003 19.2 4.02355 19.2 8V13C19.2 16.9764 15.9764 20.2 12 20.2C8.02355 20.2 4.8 16.9764 4.8 13V8Z" fill="#1C274C"/>
<path fill-rule="evenodd" clip-rule="evenodd" d="M10.7902 7.40319C10.3299 7.80686 9.62941 7.80102 9.17561 7.372C8.69402 6.91671 8.67271 6.15721 9.128 5.67561L10 6.5C9.128 5.67561 9.12865 5.67493 9.12931 5.67424L9.13063 5.67285L9.13331 5.67004C9.13512 5.66815 9.13696 5.66623 9.13885 5.66429C9.14262 5.6604 9.14654 5.65641 9.15061 5.65231C9.15877 5.64411 9.16754 5.63551 9.17695 5.62652C9.19577 5.60854 9.21713 5.58908 9.24116 5.56843C9.28927 5.52709 9.34781 5.48121 9.41788 5.43304C9.55852 5.33635 9.74251 5.23251 9.97736 5.13753C10.4486 4.94695 11.1043 4.8 12 4.8C12.8957 4.8 13.5514 4.94695 14.0226 5.13753C14.2575 5.23251 14.4415 5.33635 14.5821 5.43304C14.6522 5.48121 14.7107 5.52709 14.7588 5.56843C14.7829 5.58908 14.8042 5.60854 14.8231 5.62652C14.8325 5.63551 14.8412 5.64411 14.8494 5.65231C14.8535 5.65641 14.8574 5.6604 14.8612 5.66429C14.863 5.66623 14.8649 5.66815 14.8667 5.67004L14.8694 5.67285L14.8707 5.67424C14.8713 5.67492 14.872 5.67561 14.0117 6.48897L14.872 5.67561C15.3273 6.15721 15.306 6.91671 14.8244 7.372C14.3706 7.80102 13.6701 7.80686 13.2098 7.40319C13.1948 7.39477 13.1666 7.38016 13.1228 7.36247C12.9759 7.30306 12.6316 7.2 12 7.2C11.3684 7.2 11.0241 7.30306 10.8772 7.36247C10.8334 7.38016 10.8052 7.39477 10.7902 7.40319Z" fill="#1C274C"/>
<path fill-rule="evenodd" clip-rule="evenodd" d="M10.7902 10.4032C10.3299 10.8069 9.62941 10.801 9.17561 10.372C8.69402 9.91671 8.67271 9.15721 9.128 8.67561L10 9.5C9.128 8.67561 9.12865 8.67493 9.12931 8.67424L9.13063 8.67285L9.13331 8.67004C9.13512 8.66815 9.13696 8.66623 9.13885 8.66429C9.14262 8.6604 9.14654 8.65641 9.15061 8.65231C9.15877 8.64412 9.16754 8.63551 9.17695 8.62652C9.19577 8.60854 9.21713 8.58908 9.24116 8.56843C9.28927 8.52709 9.34781 8.48121 9.41788 8.43304C9.55852 8.33635 9.74251 8.23251 9.97736 8.13753C10.4486 7.94695 11.1043 7.8 12 7.8C12.8957 7.8 13.5514 7.94695 14.0226 8.13753C14.2575 8.23251 14.4415 8.33635 14.5821 8.43304C14.6522 8.48121 14.7107 8.52709 14.7588 8.56843C14.7829 8.58908 14.8042 8.60854 14.8231 8.62652C14.8325 8.63551 14.8412 8.64412 14.8494 8.65231C14.8535 8.65641 14.8574 8.6604 14.8612 8.66429C14.863 8.66623 14.8649 8.66815 14.8667 8.67004L14.8694 8.67285L14.8707 8.67424C14.8713 8.67492 14.872 8.67561 14.0117 9.48897L14.872 8.67561C15.3273 9.15721 15.306 9.91671 14.8244 10.372C14.3706 10.801 13.6701 10.8069 13.2098 10.4032C13.1948 10.3948 13.1666 10.3802 13.1228 10.3625C12.9759 10.3031 12.6316 10.2 12 10.2C11.3684 10.2 11.0241 10.3031 10.8772 10.3625C10.8334 10.3802 10.8052 10.3948 10.7902 10.4032Z" fill="#1C274C"/>
<path fill-rule="evenodd" clip-rule="evenodd" d="M3 9.8C3.66274 9.8 4.2 10.3373 4.2 11V13C4.2 17.3079 7.69218 20.8 12 20.8C16.3079 20.8 19.8 17.3079 19.8 13V11C19.8 10.3373 20.3373 9.8 21 9.8C21.6627 9.8 22.2 10.3373 22.2 11V13C22.2 18.6333 17.6333 23.2 12 23.2C6.3667 23.2 1.8 18.6333 1.8 13V11C1.8 10.3373 2.33726 9.8 3 9.8Z" fill="#1C274C"/>
</svg>
