<svg width="24" height="24" viewBox="0 0 24 24" fill="none" xmlns="http://www.w3.org/2000/svg">
<path fill-rule="evenodd" clip-rule="evenodd" d="M7.99999 15.2C6.4536 15.2 5.19999 16.4536 5.19999 18C5.19999 19.5464 6.4536 20.8 7.99999 20.8C9.54635 20.8 10.8 19.5464 10.8 18C10.8 16.4536 9.54635 15.2 7.99999 15.2ZM2.79999 18C2.79999 15.1282 5.1281 12.8 7.99999 12.8C10.8718 12.8 13.2 15.1282 13.2 18C13.2 20.8718 10.8718 23.2 7.99999 23.2C5.1281 23.2 2.79999 20.8718 2.79999 18Z" fill="#1C274C"/>
<path fill-rule="evenodd" clip-rule="evenodd" d="M13.2 6V18H10.8L10.8 6H13.2Z" fill="#1C274C"/>
<path fill-rule="evenodd" clip-rule="evenodd" d="M14.0926 4.44181C13.724 4.39882 13.3743 4.61499 13.2479 4.96396C13.2479 4.96396 13.2479 4.96387 13.2479 4.96396C13.2479 4.96398 13.226 5.02949 13.2133 5.27133C13.2004 5.51637 13.2 5.84328 13.2 6.34199C13.2 6.79857 13.2051 6.86676 13.2142 6.91445C13.2511 7.10722 13.3578 7.28033 13.514 7.3998C13.5527 7.42938 13.6115 7.46448 14.0199 7.66868L16.6533 8.98539C16.6533 8.98539 16.6533 8.98539 16.6533 8.98539C17.0994 9.20841 17.392 9.35426 17.6169 9.45231C17.8391 9.54916 17.9075 9.55887 17.9075 9.55891C17.9075 9.55891 17.9076 9.55892 17.9075 9.55891C18.2761 9.60186 18.6257 9.38568 18.7521 9.03676C18.7521 9.03675 18.774 8.97123 18.7867 8.72938C18.7996 8.48434 18.8 8.15743 18.8 7.65871C18.8 7.20214 18.7949 7.13395 18.7857 7.08628C18.7489 6.89354 18.6422 6.72042 18.486 6.60094C18.4859 6.6009 18.486 6.60097 18.486 6.60094M15.58 11.132L12.9466 9.81531C12.9466 9.81531 12.9466 9.81531 12.9466 9.81531C12.9238 9.80388 12.901 9.79252 12.8783 9.7812C12.5819 9.63338 12.3004 9.49297 12.0563 9.30639C11.4321 8.82903 11.0049 8.1384 10.8571 7.36611C10.8571 7.36597 10.8572 7.36625 10.8571 7.36611C10.7994 7.06435 10.7996 6.74934 10.7999 6.41812C10.8 6.39284 10.8 6.36747 10.8 6.34199L10.8 6.31065C10.8 5.85184 10.8 5.46104 10.8166 5.14518C10.8334 4.82544 10.8705 4.48013 10.9913 4.1466C10.9913 4.14664 10.9913 4.14657 10.9913 4.1466C11.497 2.75085 12.8962 1.88598 14.3707 2.05797C14.723 2.09908 15.0485 2.22036 15.342 2.34831C15.632 2.47469 15.9815 2.64946 16.3919 2.85466L19.0534 4.1854C19.0762 4.19684 19.099 4.20821 19.1217 4.21953C19.4181 4.36736 19.6996 4.50776 19.9436 4.69429C20.5678 5.17165 20.995 5.8623 21.1428 6.63459C21.1428 6.63445 21.1429 6.63474 21.1428 6.63459C21.2006 6.93635 21.2004 7.25139 21.2 7.58258C21.2 7.60786 21.2 7.63324 21.2 7.65871V7.69007C21.2 8.14888 21.2 8.53967 21.1834 8.85553C21.1665 9.17528 21.1295 9.52059 21.0086 9.85412C20.5031 11.2499 19.1039 12.1147 17.6293 11.9427C17.277 11.9016 16.9515 11.7804 16.658 11.6524C16.3678 11.5259 16.0181 11.351 15.6074 11.1457L15.58 11.132ZM14.0926 4.44181C14.0925 4.4418 14.0926 4.44181 14.0926 4.44181C14.0926 4.44185 14.1609 4.45156 14.383 4.54838C14.608 4.64644 14.9006 4.79228 15.3466 5.0153C15.3466 5.0153 15.3466 5.01531 15.3466 5.0153L17.98 6.33201" fill="#1C274C"/>
</svg>
