<svg width="24" height="24" viewBox="0 0 24 24" fill="none" xmlns="http://www.w3.org/2000/svg">
<path fill-rule="evenodd" clip-rule="evenodd" d="M3.50001 5.79999C4.16275 5.79999 4.70001 6.33725 4.70001 6.99999V13C4.70001 14.9195 4.70256 16.2385 4.83576 17.2292C4.96431 18.1854 5.19445 18.6542 5.52008 18.9798C5.84575 19.3055 6.31464 19.5357 7.27082 19.6642C8.26153 19.7974 9.58047 19.8 11.5 19.8H12.5C14.4195 19.8 15.7385 19.7974 16.7292 19.6642C17.6854 19.5357 18.1542 19.3055 18.4798 18.9799C18.8055 18.6543 19.0357 18.1854 19.1643 17.2292C19.2975 16.2385 19.3 14.9195 19.3 13V6.99999C19.3 6.33725 19.8373 5.79999 20.5 5.79999C21.1628 5.79999 21.7 6.33725 21.7 6.99999V13.0859C21.7 14.8984 21.7001 16.3796 21.5429 17.549C21.3785 18.7713 21.0229 19.831 20.177 20.6769C19.3311 21.5228 18.2713 21.8785 17.049 22.0428C15.8796 22.2001 14.3984 22.2 12.5859 22.2H11.4141C9.60158 22.2 8.12041 22.2001 6.95102 22.0428C5.72869 21.8785 4.66895 21.5228 3.82304 20.6769C2.97713 19.831 2.62149 18.7713 2.45716 17.549C2.29994 16.3796 2.29997 14.8984 2.30001 13.0859L2.30001 6.99999C2.30001 6.33725 2.83727 5.79999 3.50001 5.79999Z" fill="#1C274C"/>
<path fill-rule="evenodd" clip-rule="evenodd" d="M3.21219 4.21218C3.20884 4.26631 3.20614 4.33046 3.2042 4.40697C3.20009 4.57008 3.20001 4.75983 3.20001 4.99999C3.20001 5.24016 3.20009 5.42991 3.2042 5.59302C3.20614 5.66953 3.20884 5.73368 3.21219 5.78781C3.26633 5.79116 3.33047 5.79387 3.40699 5.7958C3.57009 5.79992 3.75985 5.79999 4.00001 5.79999H20C20.2402 5.79999 20.4299 5.79992 20.593 5.7958C20.6695 5.79387 20.7337 5.79116 20.7878 5.78781C20.7912 5.73368 20.7939 5.66953 20.7958 5.59302C20.7999 5.42991 20.8 5.24016 20.8 4.99999C20.8 4.75983 20.7999 4.57008 20.7958 4.40697C20.7939 4.33046 20.7912 4.26631 20.7878 4.21218C20.7337 4.20883 20.6695 4.20612 20.593 4.20419C20.4299 4.20007 20.2402 4.19999 20 4.19999H4.00001C3.75985 4.19999 3.57009 4.20007 3.40699 4.20419C3.33047 4.20612 3.26633 4.20883 3.21219 4.21218ZM3.93913 1.79998C3.95944 1.79999 3.97974 1.79999 4.00001 1.79999H20C20.0203 1.79999 20.0406 1.79999 20.0609 1.79998C20.4789 1.79987 20.9035 1.79976 21.2572 1.84731C21.6625 1.90181 22.1491 2.03779 22.5556 2.44434C22.9622 2.85091 23.0982 3.33743 23.1527 3.74282C23.2002 4.0965 23.2001 4.52108 23.2 4.93911C23.2 4.95942 23.2 4.97972 23.2 4.99999C23.2 5.02027 23.2 5.04057 23.2 5.06088C23.2001 5.47891 23.2002 5.90349 23.1527 6.25717C23.0982 6.66255 22.9622 7.14907 22.5556 7.55563C22.1491 7.96219 21.6625 8.09818 21.2572 8.15268C20.9035 8.20023 20.4789 8.20012 20.0609 8.20001C20.0406 8.2 20.0203 8.19999 20 8.19999H4.00001C3.97974 8.19999 3.95944 8.2 3.93913 8.20001C3.5211 8.20012 3.09652 8.20023 2.74284 8.15268C2.33746 8.09818 1.85096 7.9622 1.44439 7.55565C1.03783 7.14908 0.901823 6.66254 0.847321 6.25716C0.799772 5.90349 0.799886 5.4789 0.799999 5.06087C0.800004 5.04056 0.80001 5.02027 0.80001 4.99999C0.80001 4.97972 0.800004 4.95943 0.799999 4.93912C0.799886 4.52109 0.799772 4.0965 0.847321 3.74283C0.901823 3.33745 1.0378 2.85094 1.44436 2.44437C1.85093 2.03782 2.33746 1.90181 2.74284 1.84731C3.09652 1.79976 3.5211 1.79987 3.93913 1.79998Z" fill="#1C274C"/>
<path fill-rule="evenodd" clip-rule="evenodd" d="M15.2992 10.1049C15.7936 10.5463 15.8365 11.3048 15.3951 11.7992L11.8237 15.7992C11.5961 16.0542 11.2705 16.2 10.9286 16.2C10.5868 16.2 10.2612 16.0542 10.0335 15.7992L8.60489 14.1992C8.16349 13.7049 8.20642 12.9463 8.70078 12.5049C9.19514 12.0635 9.95372 12.1064 10.3951 12.6008L10.9286 13.1982L13.6049 10.2008C14.0463 9.70641 14.8049 9.66347 15.2992 10.1049Z" fill="#1C274C"/>
</svg>
