<svg width="24" height="24" viewBox="0 0 24 24" fill="none" xmlns="http://www.w3.org/2000/svg">
<path d="M17.1999 20.4001C16.5372 20.4001 15.9999 19.8628 15.9999 19.2001V14.662C15.6843 14.9494 15.2973 15.259 14.8275 15.6349L10.5492 19.0576C9.5328 19.8706 8.973 20.3188 8.2026 20.3197H8.2002C7.5273 20.3197 6.9006 20.0182 6.4806 19.4923C6 18.8896 6 18.1726 6 16.8709V7.5289C6 6.2272 6 5.5102 6.4806 4.9081C6.9006 4.3822 7.527 4.0807 8.1999 4.0807H8.2023C8.9727 4.0816 9.5325 4.5295 10.5489 5.3428L14.826 8.7643C15.2964 9.1408 15.684 9.4507 15.9999 9.7384V5.2C15.9999 4.5373 16.5372 4 17.1999 4C17.8626 4 18.3999 4.5373 18.3999 5.2V19.2001C18.3999 19.8628 17.8626 20.4001 17.1999 20.4001ZM8.4063 6.7099C8.4 6.9466 8.4 7.2406 8.4 7.5289V16.8709C8.4 17.1595 8.4 17.4532 8.4063 17.6899C8.5953 17.5468 8.8245 17.3635 9.0498 17.1832L13.3266 13.7617C14.0481 13.1845 14.67 12.6868 14.7471 12.4807C14.8149 12.2995 14.8149 12.1003 14.7471 11.9194C14.6697 11.713 14.0481 11.2156 13.3278 10.6396L9.0498 7.2166C8.8245 7.0363 8.595 6.8527 8.4063 6.7099Z" fill="#1C274C"/>
</svg>
