<svg width="24" height="24" viewBox="0 0 24 24" fill="none" xmlns="http://www.w3.org/2000/svg">
<path d="M17 14C17.5523 14 18 13.5523 18 13C18 12.4477 17.5523 12 17 12C16.4477 12 16 12.4477 16 13C16 13.5523 16.4477 14 17 14Z" fill="#1C274C"/>
<path d="M17 18C17.5523 18 18 17.5523 18 17C18 16.4477 17.5523 16 17 16C16.4477 16 16 16.4477 16 17C16 17.5523 16.4477 18 17 18Z" fill="#1C274C"/>
<path d="M13 17C13 17.5523 12.5523 18 12 18C11.4477 18 11 17.5523 11 17C11 16.4477 11.4477 16 12 16C12.5523 16 13 16.4477 13 17Z" fill="#1C274C"/>
<path d="M12 14C12.5523 14 13 13.5523 13 13C13 12.4477 12.5523 12 12 12C11.4477 12 11 12.4477 11 13C11 13.5523 11.4477 14 12 14Z" fill="#1C274C"/>
<path d="M7.99999 17C7.99999 17.5523 7.55227 18 6.99999 18C6.44771 18 5.99999 17.5523 5.99999 17C5.99999 16.4477 6.44771 16 6.99999 16C7.55227 16 7.99999 16.4477 7.99999 17Z" fill="#1C274C"/>
<path d="M6.99999 14C7.55227 14 7.99999 13.5523 7.99999 13C7.99999 12.4477 7.55227 12 6.99999 12C6.44771 12 5.99999 12.4477 5.99999 13C5.99999 13.5523 6.44771 14 6.99999 14Z" fill="#1C274C"/>
<path fill-rule="evenodd" clip-rule="evenodd" d="M6.99999 1.3C7.66273 1.3 8.19999 1.83726 8.19999 2.5V2.80591C8.73451 2.79998 9.30562 2.79999 9.91408 2.8H14.0859C14.6944 2.79999 15.2655 2.79998 15.8 2.80591V2.5C15.8 1.83726 16.3373 1.3 17 1.3C17.6627 1.3 18.2 1.83726 18.2 2.5V2.91571C18.3193 2.92814 18.4356 2.94191 18.549 2.95715C19.7713 3.12148 20.831 3.47712 21.6769 4.32304C22.5228 5.16895 22.8785 6.22869 23.0428 7.45101C23.2001 8.62039 23.2 10.1016 23.2 11.9141V14.0859C23.2 15.8984 23.2001 17.3796 23.0428 18.549C22.8785 19.7713 22.5229 20.831 21.677 21.6769L21.6769 21.677C20.831 22.5229 19.7713 22.8785 18.549 23.0429C17.3796 23.2001 15.8984 23.2 14.0859 23.2H9.91407C8.10155 23.2 6.62038 23.2001 5.451 23.0429C4.22867 22.8785 3.16893 22.5228 2.32302 21.6769C1.47711 20.831 1.12147 19.7713 0.957137 18.549C0.799918 17.3796 0.79995 15.8984 0.799989 14.0859V11.9141C0.79995 10.1016 0.799918 8.6204 0.957137 7.45102C1.12147 6.2287 1.47712 5.16896 2.32303 4.32305C3.16894 3.47714 4.22868 3.12149 5.45101 2.95715C5.5644 2.9419 5.68072 2.92814 5.79999 2.91571V2.5C5.79999 1.83726 6.33725 1.3 6.99999 1.3ZM5.7708 5.33575C4.81462 5.4643 4.34576 5.69444 4.02009 6.0201C3.69443 6.34577 3.46429 6.81463 3.33574 7.77081C3.33443 7.78051 3.33314 7.79024 3.33186 7.8H20.6681C20.6668 7.79024 20.6655 7.78051 20.6642 7.77082C20.5357 6.81463 20.3055 6.34578 19.9799 6.02011L19.9798 6.02008C19.6542 5.69444 19.1854 5.46431 18.2292 5.33575C17.2385 5.20255 15.9195 5.2 14 5.2H9.99999C8.08045 5.2 6.76151 5.20255 5.7708 5.33575ZM3.19999 12C3.19999 11.3309 3.2003 10.7347 3.20635 10.2H20.7936C20.7997 10.7347 20.8 11.3309 20.8 12V14C20.8 15.9195 20.7974 17.2385 20.6642 18.2292C20.5357 19.1854 20.3055 19.6542 19.9799 19.9798L19.9798 19.9799C19.6542 20.3056 19.1854 20.5357 18.2292 20.6643C17.2385 20.7975 15.9195 20.8 14 20.8H9.99999C8.08045 20.8 6.76151 20.7975 5.7708 20.6643C4.81462 20.5357 4.34577 20.3056 4.0201 19.9799L4.02006 19.9798C3.69443 19.6542 3.46429 19.1854 3.33574 18.2292C3.20254 17.2385 3.19999 15.9195 3.19999 14V12Z" fill="#1C274C"/>
</svg>
