<svg width="24" height="24" viewBox="0 0 24 24" fill="none" xmlns="http://www.w3.org/2000/svg">
<path fill-rule="evenodd" clip-rule="evenodd" d="M8.2 1C8.86274 1 9.4 1.53726 9.4 2.2V5.2C9.4 5.86274 8.86274 6.4 8.2 6.4C7.53726 6.4 7 5.86274 7 5.2V2.2C7 1.53726 7.53726 1 8.2 1Z" fill="#1C274C"/>
<path fill-rule="evenodd" clip-rule="evenodd" d="M16.2 1C16.8627 1 17.4 1.53726 17.4 2.2V5.2C17.4 5.86274 16.8627 6.4 16.2 6.4C15.5373 6.4 15 5.86274 15 5.2V2.2C15 1.53726 15.5373 1 16.2 1Z" fill="#1C274C"/>
<path fill-rule="evenodd" clip-rule="evenodd" d="M2.5 9.28997C2.5 8.62723 3.03726 8.08997 3.7 8.08997H20.7C21.3627 8.08997 21.9 8.62723 21.9 9.28997C21.9 9.95271 21.3627 10.49 20.7 10.49H3.7C3.03726 10.49 2.5 9.95271 2.5 9.28997Z" fill="#1C274C"/>
<path fill-rule="evenodd" clip-rule="evenodd" d="M5.26685 5.89154C4.72919 6.47057 4.4 7.38395 4.4 8.7V17.2C4.4 18.516 4.72919 19.4294 5.26685 20.0085C5.78957 20.5714 6.67872 21 8.2 21H16.2C17.7213 21 18.6104 20.5714 19.1331 20.0085C19.6708 19.4294 20 18.516 20 17.2V8.7C20 7.38395 19.6708 6.47057 19.1331 5.89154C18.6104 5.32862 17.7213 4.9 16.2 4.9H8.2C6.67872 4.9 5.78957 5.32862 5.26685 5.89154ZM3.50815 4.25846C4.61043 3.07138 6.22128 2.5 8.2 2.5H16.2C18.1787 2.5 19.7896 3.07138 20.8919 4.25846C21.9792 5.42943 22.4 7.01605 22.4 8.7V17.2C22.4 18.884 21.9792 20.4706 20.8919 21.6415C19.7896 22.8286 18.1787 23.4 16.2 23.4H8.2C6.22128 23.4 4.61043 22.8286 3.50815 21.6415C2.42081 20.4706 2 18.884 2 17.2V8.7C2 7.01605 2.42081 5.42943 3.50815 4.25846Z" fill="#1C274C"/>
<path d="M7.49431 13.9C7.49431 13.3477 7.94202 12.9 8.49431 12.9H8.50329C9.05558 12.9 9.50329 13.3477 9.50329 13.9C9.50329 14.4523 9.05558 14.9 8.50329 14.9H8.49431C7.94202 14.9 7.49431 14.4523 7.49431 13.9Z" fill="#1C274C"/>
<path d="M11.1955 13.9C11.1955 13.3477 11.6432 12.9 12.1955 12.9H12.2045C12.7568 12.9 13.2045 13.3477 13.2045 13.9C13.2045 14.4523 12.7568 14.9 12.2045 14.9H12.1955C11.6432 14.9 11.1955 14.4523 11.1955 13.9Z" fill="#1C274C"/>
<path d="M15.8947 12.9C15.3424 12.9 14.8947 13.3477 14.8947 13.9C14.8947 14.4523 15.3424 14.9 15.8947 14.9H15.9037C16.456 14.9 16.9037 14.4523 16.9037 13.9C16.9037 13.3477 16.456 12.9 15.9037 12.9H15.8947Z" fill="#1C274C"/>
<path d="M15.8947 15.9C15.3424 15.9 14.8947 16.3477 14.8947 16.9C14.8947 17.4523 15.3424 17.9 15.8947 17.9H15.9037C16.456 17.9 16.9037 17.4523 16.9037 16.9C16.9037 16.3477 16.456 15.9 15.9037 15.9H15.8947Z" fill="#1C274C"/>
<path d="M12.1955 15.9C11.6432 15.9 11.1955 16.3477 11.1955 16.9C11.1955 17.4523 11.6432 17.9 12.1955 17.9H12.2045C12.7568 17.9 13.2045 17.4523 13.2045 16.9C13.2045 16.3477 12.7568 15.9 12.2045 15.9H12.1955Z" fill="#1C274C"/>
<path d="M8.49431 15.9C7.94202 15.9 7.49431 16.3477 7.49431 16.9C7.49431 17.4523 7.94202 17.9 8.49431 17.9H8.50329C9.05558 17.9 9.50329 17.4523 9.50329 16.9C9.50329 16.3477 9.05558 15.9 8.50329 15.9H8.49431Z" fill="#1C274C"/>
</svg>
