<svg width="24" height="24" viewBox="0 0 24 24" fill="none" xmlns="http://www.w3.org/2000/svg">
<path fill-rule="evenodd" clip-rule="evenodd" d="M1.79999 6C1.79999 5.33726 2.33725 4.8 2.99999 4.8H15C15.6627 4.8 16.2 5.33726 16.2 6C16.2 6.66274 15.6627 7.2 15 7.2H2.99999C2.33725 7.2 1.79999 6.66274 1.79999 6Z" fill="#1C274C"/>
<path fill-rule="evenodd" clip-rule="evenodd" d="M1.79999 10C1.79999 9.33726 2.33725 8.8 2.99999 8.8H13C13.6627 8.8 14.2 9.33726 14.2 10C14.2 10.6627 13.6627 11.2 13 11.2H2.99999C2.33725 11.2 1.79999 10.6627 1.79999 10Z" fill="#1C274C"/>
<path fill-rule="evenodd" clip-rule="evenodd" d="M1.79999 14C1.79999 13.3373 2.33725 12.8 2.99999 12.8H8.99999C9.66273 12.8 10.2 13.3373 10.2 14C10.2 14.6627 9.66273 15.2 8.99999 15.2H2.99999C2.33725 15.2 1.79999 14.6627 1.79999 14Z" fill="#1C274C"/>
<path fill-rule="evenodd" clip-rule="evenodd" d="M1.79999 18C1.79999 17.3373 2.33725 16.8 2.99999 16.8H7.99999C8.66273 16.8 9.19999 17.3373 9.19999 18C9.19999 18.6627 8.66273 19.2 7.99999 19.2H2.99999C2.33725 19.2 1.79999 18.6627 1.79999 18Z" fill="#1C274C"/>
<path fill-rule="evenodd" clip-rule="evenodd" d="M17 6.8C17.6627 6.8 18.2 7.33726 18.2 8V16.5C18.2 17.1627 17.6627 17.7 17 17.7C16.3372 17.7 15.8 17.1627 15.8 16.5V8C15.8 7.33726 16.3372 6.8 17 6.8Z" fill="#1C274C"/>
<path fill-rule="evenodd" clip-rule="evenodd" d="M14.5 15.2C13.782 15.2 13.2 15.782 13.2 16.5C13.2 17.218 13.782 17.8 14.5 17.8C15.218 17.8 15.8 17.218 15.8 16.5C15.8 15.782 15.218 15.2 14.5 15.2ZM10.8 16.5C10.8 14.4565 12.4565 12.8 14.5 12.8C16.5434 12.8 18.2 14.4565 18.2 16.5C18.2 18.5435 16.5434 20.2 14.5 20.2C12.4565 20.2 10.8 18.5435 10.8 16.5Z" fill="#1C274C"/>
<path fill-rule="evenodd" clip-rule="evenodd" d="M17 6.8C17.6627 6.8 18.2 7.33726 18.2 8C18.2 9.54636 19.4536 10.8 21 10.8C21.6627 10.8 22.2 11.3373 22.2 12C22.2 12.6627 21.6627 13.2 21 13.2C18.1281 13.2 15.8 10.8718 15.8 8C15.8 7.33726 16.3372 6.8 17 6.8Z" fill="#1C274C"/>
</svg>
