<svg width="24" height="24" viewBox="0 0 24 24" fill="none" xmlns="http://www.w3.org/2000/svg">
<path d="M7.2 20.4001C7.8627 20.4001 8.4 19.8628 8.4 19.2001V14.662C8.7156 14.9494 9.1026 15.259 9.5724 15.6349L13.8507 19.0576C14.8671 19.8706 15.4269 20.3188 16.1973 20.3197H16.1997C16.8726 20.3197 17.4993 20.0182 17.9193 19.4923C18.3999 18.8896 18.3999 18.1726 18.3999 16.8709V7.5289C18.3999 6.2272 18.3999 5.5102 17.9193 4.9081C17.4993 4.3822 16.8729 4.0807 16.2 4.0807H16.1976C15.4272 4.0816 14.8674 4.5295 13.851 5.3428L9.5739 8.7643C9.1035 9.1408 8.7159 9.4507 8.4 9.7384V5.2C8.4 4.5373 7.8627 4 7.2 4C6.5373 4 6 4.5373 6 5.2V19.2001C6 19.8628 6.5373 20.4001 7.2 20.4001ZM15.9936 6.7099C15.9999 6.9466 15.9999 7.2406 15.9999 7.5289V16.8709C15.9999 17.1595 15.9999 17.4532 15.9936 17.6899C15.8046 17.5468 15.5754 17.3635 15.3501 17.1832L11.0733 13.7617C10.3518 13.1845 9.7299 12.6868 9.6528 12.4807C9.585 12.2995 9.585 12.1003 9.6528 11.9194C9.7302 11.713 10.3518 11.2156 11.0721 10.6396L15.3501 7.2166C15.5754 7.0363 15.8049 6.8527 15.9936 6.7099Z" fill="#1C274C"/>
</svg>
