<svg width="24" height="24" viewBox="0 0 24 24" fill="none" xmlns="http://www.w3.org/2000/svg">
<g clip-path="url(#clip0_6_1523)">
<path fill-rule="evenodd" clip-rule="evenodd" d="M11.5 3.2C6.91602 3.2 3.19999 6.91604 3.19999 11.5C3.19999 16.084 6.91602 19.8 11.5 19.8C16.084 19.8 19.8 16.084 19.8 11.5C19.8 6.91604 16.084 3.2 11.5 3.2ZM0.799988 11.5C0.799988 5.59056 5.59054 0.800003 11.5 0.800003C17.4094 0.800003 22.2 5.59056 22.2 11.5C22.2 17.4094 17.4094 22.2 11.5 22.2C5.59054 22.2 0.799988 17.4094 0.799988 11.5Z" fill="#1C274C"/>
<path fill-rule="evenodd" clip-rule="evenodd" d="M17.6515 17.6515C18.1201 17.1828 18.8799 17.1828 19.3485 17.6515L22.8485 21.1515C23.3171 21.6201 23.3171 22.3799 22.8485 22.8485C22.3799 23.3172 21.6201 23.3172 21.1515 22.8485L17.6515 19.3485C17.1828 18.8799 17.1828 18.1201 17.6515 17.6515Z" fill="#1C274C"/>
</g>
<defs>
<clipPath id="clip0_6_1523">
<rect width="24" height="24" fill="white"/>
</clipPath>
</defs>
</svg>
