<svg width="24" height="24" viewBox="0 0 24 24" fill="none" xmlns="http://www.w3.org/2000/svg">
<g clip-path="url(#clip0_10_1843)">
<path d="M14.77 23.41C14.09 23.41 13.41 23.23 12.8 22.88C11.52 22.14 10.95 20.42 9.56 16.26C9.42 15.83 9.32 15.54 9.25 15.43C9.18 15.33 9.09 15.23 8.98 15.16C8.87 15.09 8.58 14.99 8.15 14.85C3.99 13.46 2.27 12.89 1.53 11.61C0.819998 10.4 0.819998 8.88999 1.53 7.66999C2.27 6.38999 3.99 5.81999 8.15 4.42999L13.3 2.70999C18.26 1.05999 20.75 0.229995 22.46 1.93999C24.17 3.64999 23.34 6.13999 21.69 11.1L19.97 16.25C18.59 20.41 18.01 22.13 16.73 22.87C16.12 23.22 15.44 23.4 14.76 23.4L14.77 23.41ZM19.96 3.40999C18.81 3.40999 16.71 4.10999 14.06 4.98999L8.91 6.70999C6.22 7.60999 3.89 8.37999 3.61 8.87999C3.34 9.34999 3.34 9.92999 3.61 10.4C3.9 10.9 6.22 11.67 8.91 12.57C9.55 12.78 9.93 12.91 10.32 13.17C10.69 13.42 11 13.73 11.25 14.09C11.5 14.47 11.63 14.86 11.85 15.5C12.75 18.19 13.52 20.52 14.02 20.8C14.49 21.07 15.07 21.07 15.54 20.8C16.04 20.51 16.81 18.19 17.71 15.5L19.43 10.35C20.6 6.83999 21.44 4.30999 20.78 3.63999C20.62 3.47999 20.35 3.40999 19.98 3.40999H19.96ZM13.78 11.78C13.47 11.78 13.16 11.66 12.93 11.42C12.46 10.95 12.47 10.19 12.93 9.71999L17.14 5.55999C17.61 5.08999 18.37 5.09999 18.84 5.55999C19.31 6.02999 19.3 6.79 18.84 7.25999L14.63 11.42C14.4 11.65 14.09 11.77 13.79 11.77L13.78 11.78Z" fill="#1C274C"/>
</g>
<defs>
<clipPath id="clip0_10_1843">
<rect width="24" height="24" fill="white"/>
</clipPath>
</defs>
</svg>
