<svg width="24" height="24" viewBox="0 0 24 24" fill="none" xmlns="http://www.w3.org/2000/svg">
<path fill-rule="evenodd" clip-rule="evenodd" d="M8.45453 4.83464C8.45453 4.83464 8.45453 4.83464 8.45453 4.83464L7.76838 5.24098C6.73381 5.85366 6.03341 6.27002 5.51576 6.65057C5.02028 7.01482 4.76915 7.29277 4.60263 7.58861C4.43523 7.88603 4.32453 8.25278 4.2641 8.88161C4.20127 9.53545 4.19999 10.3695 4.19999 11.5937V12.4063C4.19999 13.6305 4.20127 14.4646 4.2641 15.1184C4.32453 15.7472 4.43523 16.114 4.60263 16.4114C4.76914 16.7072 5.02027 16.9851 5.51576 17.3494C6.0334 17.7299 6.7338 18.1463 7.76837 18.759L8.45453 19.1654C9.48933 19.7782 10.1908 20.1919 10.7703 20.4612C11.3257 20.7193 11.6794 20.8 12 20.8C12.3206 20.8 12.6743 20.7193 13.2297 20.4612C13.8092 20.192 14.5106 19.7782 15.5454 19.1654C15.5454 19.1654 15.5454 19.1654 15.5454 19.1654L16.2316 18.759C17.2662 18.1463 17.9666 17.7299 18.4842 17.3494C18.9797 16.9851 19.2309 16.7072 19.3974 16.4114C19.5648 16.114 19.6754 15.7472 19.7359 15.1184C19.7987 14.4646 19.8 13.6305 19.8 12.4063V11.5937C19.8 10.3695 19.7987 9.53545 19.7359 8.8816C19.6754 8.25278 19.5648 7.88601 19.3974 7.58859C19.2308 7.29277 18.9797 7.01483 18.4842 6.65057C17.9666 6.27003 17.2662 5.85367 16.2316 5.241C16.2316 5.24099 16.2317 5.241 16.2316 5.241L15.5454 4.83465C14.5107 4.22184 13.8092 3.80805 13.2297 3.53879C12.6743 3.28071 12.3206 3.2 12 3.2C11.6794 3.2 11.3257 3.28071 10.7703 3.53879C10.1908 3.80805 9.48933 4.22183 8.45453 4.83464ZM9.75897 1.36226C10.4964 1.01964 11.2068 0.8 12 0.8C12.7932 0.8 13.5036 1.01964 14.241 1.36226C14.9422 1.68806 15.7465 2.16444 16.7177 2.7396L17.5052 3.20593C18.4766 3.78117 19.2807 4.25733 19.9058 4.71687C20.5639 5.20068 21.0984 5.7178 21.4888 6.41141C21.8783 7.10342 22.0461 7.83207 22.1249 8.65203C22.2 9.43407 22.2 10.3837 22.2 11.5365V12.4635C22.2 13.6163 22.2 14.566 22.1249 15.348C22.0461 16.168 21.8783 16.8966 21.4888 17.5886C21.0984 18.2822 20.5639 18.7993 19.9058 19.2831C19.2807 19.7427 18.4766 20.2188 17.5051 20.7941L16.7177 21.2604C15.7466 21.8356 14.9422 22.3119 14.241 22.6377C13.5036 22.9804 12.7932 23.2 12 23.2C11.2068 23.2 10.4964 22.9804 9.75897 22.6377C9.05782 22.312 8.25346 21.8356 7.2823 21.2604L6.4951 20.7942C5.52354 20.2189 4.71938 19.7427 4.09421 19.2831C3.43611 18.7993 2.90159 18.2822 2.51119 17.5886C2.12167 16.8966 1.95391 16.168 1.87511 15.348C1.79995 14.566 1.79997 13.6163 1.79999 12.4635V11.5365C1.79997 10.3837 1.79995 9.43407 1.87511 8.65202C1.95391 7.83207 2.12167 7.1034 2.51118 6.41139C2.90158 5.7178 3.4361 5.20068 4.09421 4.71687C4.71936 4.25729 5.5235 3.7811 6.49501 3.2058L7.2823 2.73956C8.25346 2.16441 9.05781 1.68805 9.75897 1.36226Z" fill="#1C274C"/>
<path fill-rule="evenodd" clip-rule="evenodd" d="M12 10.2C11.0059 10.2 10.2 11.0059 10.2 12C10.2 12.9941 11.0059 13.8 12 13.8C12.9941 13.8 13.8 12.9941 13.8 12C13.8 11.0059 12.9941 10.2 12 10.2ZM7.79999 12C7.79999 9.6804 9.68039 7.8 12 7.8C14.3196 7.8 16.2 9.6804 16.2 12C16.2 14.3196 14.3196 16.2 12 16.2C9.68039 16.2 7.79999 14.3196 7.79999 12Z" fill="#1C274C"/>
</svg>
