<svg width="24" height="24" viewBox="0 0 24 24" fill="none" xmlns="http://www.w3.org/2000/svg">
<path fill-rule="evenodd" clip-rule="evenodd" d="M17.1515 3.15147C17.6201 2.68285 18.3799 2.68285 18.8485 3.15147L21.8485 6.15147C22.3171 6.6201 22.3171 7.3799 21.8485 7.84853L18.8485 10.8485C18.3799 11.3172 17.6201 11.3172 17.1515 10.8485C16.6828 10.3799 16.6828 9.6201 17.1515 9.15147L18.1029 8.2H17C16.1432 8.2 15.3557 8.48215 14.7207 8.95913C14.1907 9.35714 13.4385 9.25022 13.0405 8.72031C12.6425 8.19039 12.7494 7.43815 13.2793 7.04014C14.3157 6.26174 15.6056 5.8 17 5.8H18.1029L17.1515 4.84853C16.6828 4.3799 16.6828 3.6201 17.1515 3.15147ZM1.79999 7C1.79999 6.33726 2.33725 5.8 2.99999 5.8H6.99999C10.4241 5.8 13.2 8.57584 13.2 12C13.2 14.0987 14.9013 15.8 17 15.8H18.1029L17.1515 14.8485C16.6828 14.3799 16.6828 13.6201 17.1515 13.1515C17.6201 12.6828 18.3799 12.6828 18.8485 13.1515L21.8485 16.1515C22.3171 16.6201 22.3171 17.3799 21.8485 17.8485L18.8485 20.8485C18.3799 21.3172 17.6201 21.3172 17.1515 20.8485C16.6828 20.3799 16.6828 19.6201 17.1515 19.1515L18.1029 18.2H17C13.5758 18.2 10.8 15.4241 10.8 12C10.8 9.90133 9.09867 8.2 6.99999 8.2H2.99999C2.33725 8.2 1.79999 7.66274 1.79999 7ZM10.9595 15.2793C11.3575 15.8092 11.2506 16.5614 10.7207 16.9595C9.68457 17.7378 8.39463 18.2 6.99999 18.2H2.99999C2.33725 18.2 1.79999 17.6627 1.79999 17C1.79999 16.3373 2.33725 15.8 2.99999 15.8H6.99999C7.85657 15.8 8.64408 15.5177 9.27929 15.0405C9.80919 14.6425 10.5614 14.7494 10.9595 15.2793Z" fill="#1C274C"/>
</svg>
