<svg width="24" height="24" viewBox="0 0 24 24" fill="none" xmlns="http://www.w3.org/2000/svg">
<path fill-rule="evenodd" clip-rule="evenodd" d="M3.76852 5.34861C3.46722 5.64991 3.19999 6.27568 3.19999 7.79008V16.2101C3.19999 17.0879 3.42074 17.8329 3.84173 18.338C4.23062 18.8045 4.91734 19.2201 6.20999 19.2201H12.53C14.0382 19.2201 14.6654 18.9533 14.9685 18.6508C15.2711 18.3487 15.54 17.7222 15.54 16.2101V7.79008C15.54 6.27568 15.2728 5.64991 14.9715 5.34861C14.6702 5.04731 14.0444 4.78008 12.53 4.78008H6.20999C4.69559 4.78008 4.06981 5.04731 3.76852 5.34861ZM2.07146 3.65155C3.08516 2.63785 4.56439 2.38008 6.20999 2.38008H12.53C14.1756 2.38008 15.6548 2.63785 16.6685 3.65155C17.6822 4.66525 17.94 6.14448 17.94 7.79008V16.2101C17.94 17.858 17.6789 19.3365 16.664 20.3494C15.6496 21.3619 14.1718 21.6201 12.53 21.6201H6.20999C4.34264 21.6201 2.92436 20.9857 1.99824 19.8747C1.10424 18.8023 0.799988 17.4423 0.799988 16.2101V7.79008C0.799988 6.14448 1.05776 4.66525 2.07146 3.65155Z" fill="#1C274C"/>
<path fill-rule="evenodd" clip-rule="evenodd" d="M20.208 7.87307C20.2077 7.87326 20.2074 7.87346 20.2072 7.87365L17.94 9.46394V14.5258L20.2091 16.1175L20.212 16.1195C20.4478 16.286 20.6133 16.3423 20.6985 16.358C20.7021 16.3587 20.7055 16.3593 20.7087 16.3598C20.7103 16.3565 20.712 16.3529 20.7137 16.3491C20.7504 16.2694 20.8 16.1002 20.8 15.8099V8.18989C20.8 7.89962 20.7505 7.73033 20.7136 7.65025C20.7113 7.64515 20.709 7.6405 20.7069 7.63628C20.7026 7.63691 20.698 7.63766 20.6931 7.63855C20.6078 7.65384 20.4428 7.70919 20.208 7.87307ZM20.7496 7.63367C20.7496 7.63367 20.7489 7.63366 20.7475 7.63341C20.7489 7.63352 20.7496 7.63367 20.7496 7.63367ZM20.686 7.60144C20.6849 7.60039 20.6844 7.59974 20.6844 7.59974C20.6844 7.59974 20.685 7.60023 20.686 7.60144ZM20.6852 16.3987C20.6852 16.3987 20.6857 16.3981 20.6866 16.3971C20.6857 16.3982 20.6852 16.3987 20.6852 16.3987ZM20.7519 16.3634C20.7532 16.3632 20.7539 16.3631 20.7539 16.3631C20.7539 16.3631 20.7532 16.3633 20.7519 16.3634ZM21.8255 5.4937C22.8418 6.02447 23.2 7.13975 23.2 8.18989V15.8099C23.2 16.8589 22.8423 17.9766 21.8231 18.5061C20.8039 19.0355 19.6851 18.6848 18.8295 18.0814C18.829 18.081 18.8285 18.0806 18.828 18.0803L16.0509 16.1323C15.7306 15.9077 15.54 15.5411 15.54 15.1499V8.83989C15.54 8.44872 15.7306 8.0821 16.0509 7.85748L18.8328 5.90613C19.6902 5.30721 20.8088 4.96279 21.8255 5.4937Z" fill="#1C274C"/>
</svg>
