<svg width="24" height="24" viewBox="0 0 24 24" fill="none" xmlns="http://www.w3.org/2000/svg">
<path fill-rule="evenodd" clip-rule="evenodd" d="M5.80414 5.3052C4.95727 5.4053 4.52763 5.58613 4.22369 5.83557C4.08191 5.95193 3.95192 6.08192 3.83556 6.2237C3.58613 6.52764 3.40529 6.95728 3.30519 7.80416C3.20195 8.67752 3.19999 9.82687 3.19999 11.5V12.5C3.19999 14.1731 3.20195 15.3225 3.30519 16.1958C3.40529 17.0427 3.58612 17.4724 3.83558 17.7763C3.95194 17.9181 4.08191 18.048 4.22364 18.1643C4.52758 18.4138 4.95729 18.5947 5.80415 18.6948C6.67751 18.798 7.82685 18.8 9.49999 18.8C11.1731 18.8 12.3225 18.798 13.1958 18.6948C14.0427 18.5947 14.4723 18.4139 14.7763 18.1644C14.9181 18.0481 15.048 17.9181 15.1644 17.7763C15.4138 17.4724 15.5947 17.0427 15.6948 16.1958C15.798 15.3225 15.8 14.1731 15.8 12.5V11.5C15.8 9.82687 15.798 8.67752 15.6948 7.80416C15.5947 6.9573 15.4138 6.52766 15.1644 6.22372C15.0481 6.082 14.9181 5.95195 14.7763 5.83559C14.4724 5.58613 14.0427 5.4053 13.1958 5.3052C12.3225 5.20196 11.1731 5.2 9.49999 5.2C7.82686 5.2 6.67751 5.20196 5.80414 5.3052ZM18.2 11.2954C18.2 11.3386 18.2 11.3819 18.2 11.4255V12.5745C18.2 12.6181 18.2 12.6614 18.2 12.7046V13.7586C19.2059 14.2615 19.8398 14.5748 20.3096 14.7285C20.4819 14.7849 20.5873 14.8044 20.6464 14.8101C20.6678 14.7546 20.6974 14.6517 20.7241 14.4723C20.7968 13.9826 20.8 13.2741 20.8 12.1461V11.8543C20.8 10.7264 20.7968 10.0178 20.7241 9.52808C20.6974 9.3487 20.6678 9.24576 20.6464 9.1903C20.5873 9.19601 20.4819 9.21551 20.3096 9.27191C19.8398 9.42562 19.2059 9.73887 18.2 10.2419V11.2954ZM20.7104 9.19124C20.7104 9.19124 20.7032 9.19169 20.6925 9.18838C20.7057 9.18888 20.7104 9.19124 20.7104 9.19124ZM20.6275 9.14821C20.6198 9.14015 20.617 9.13348 20.617 9.13348C20.617 9.13348 20.6212 9.13663 20.6275 9.14821ZM20.617 14.8669C20.617 14.8669 20.6198 14.8602 20.6275 14.8521C20.6212 14.8637 20.617 14.8669 20.617 14.8669ZM20.6925 14.812C20.7032 14.8087 20.7104 14.8091 20.7104 14.8091C20.7104 14.8091 20.7057 14.8115 20.6925 14.812ZM18.0891 16.3819C18.6339 16.6457 19.128 16.8671 19.5632 17.0095C20.2603 17.2376 21.1132 17.3682 21.9195 16.8699C22.7257 16.3716 22.9903 15.5503 23.098 14.8248C23.2002 14.1372 23.2001 13.2466 23.2 12.236V11.7644C23.2001 10.7538 23.2002 9.86322 23.098 9.17556C22.9903 8.45008 22.7257 7.62877 21.9195 7.13049C21.1132 6.6322 20.2603 6.76283 19.5632 6.99091C19.128 7.13331 18.6339 7.35472 18.0891 7.61844C18.0856 7.58618 18.0819 7.55418 18.0782 7.52242C17.9513 6.44899 17.6782 5.50361 17.0196 4.70121C16.8036 4.43792 16.5621 4.19646 16.299 3.98042C15.4965 3.32192 14.551 3.04868 13.4776 2.92179C12.4468 2.79995 11.1549 2.79997 9.57448 2.8H9.4255C7.8451 2.79997 6.55323 2.79995 5.52242 2.92179C4.44896 3.04868 3.50356 3.32183 2.70115 3.98035C2.43785 4.19643 2.19642 4.43786 1.98034 4.70116C1.32182 5.50357 1.04867 6.44897 0.921781 7.52243C0.799935 8.55324 0.799959 9.84511 0.799989 11.4255V12.5745C0.799959 14.1549 0.799935 15.4468 0.921781 16.4776C1.04867 17.551 1.32182 18.4964 1.98032 19.2989C2.19638 19.5621 2.43788 19.8036 2.7012 20.0197C3.5036 20.6782 4.44898 20.9513 5.52241 21.0782C6.55324 21.2001 7.84512 21.2 9.42554 21.2H9.57451C11.1549 21.2 12.4468 21.2001 13.4776 21.0782C14.551 20.9513 15.4964 20.6781 16.2989 20.0196C16.5621 19.8036 16.8035 19.5621 17.0196 19.2989C17.6781 18.4965 17.9513 17.5511 18.0782 16.4776C18.0819 16.4459 18.0856 16.4141 18.0891 16.3819Z" fill="#1C274C"/>
</svg>
